<?xml version="1.0" standalone="no"?>
<!DOCTYPE svg PUBLIC "-//W3C//DTD SVG 20010904//EN"
 "http://www.w3.org/TR/2001/REC-SVG-20010904/DTD/svg10.dtd">
<svg version="1.0" xmlns="http://www.w3.org/2000/svg"
 width="173.000000pt" height="80.000000pt" viewBox="0 0 173.000000 80.000000"
 preserveAspectRatio="xMidYMid meet">
<metadata>
Created by potrace 1.16, written by Peter Selinger 2001-2019
</metadata>
<g transform="translate(0.000000,80.000000) scale(0.100000,-0.100000)"
fill="#000000" stroke="none">
<path d="M84 431 c-56 -26 -84 -73 -84 -143 0 -96 63 -158 161 -158 70 0 145
59 151 120 3 22 -1 25 -34 28 -30 3 -38 0 -38 -13 0 -29 -46 -65 -84 -65 -43
0 -86 46 -86 92 0 37 48 88 83 88 30 0 75 -34 88 -67 7 -20 15 -24 41 -21 30
3 33 6 30 33 -7 64 -83 125 -154 125 -18 0 -51 -9 -74 -19z"/>
<path d="M1220 431 c-36 -18 -80 -73 -80 -97 0 -26 60 -16 97 16 43 38 76 38
114 1 79 -80 -26 -200 -114 -131 -26 20 -97 28 -97 11 0 -16 51 -71 81 -86 15
-8 50 -15 77 -15 89 0 156 69 156 160 0 63 -29 109 -84 138 -54 27 -104 28
-150 3z"/>
<path d="M350 370 l0 -70 40 0 c39 0 40 1 40 36 l0 37 52 -5 c40 -4 57 -11 74
-32 17 -19 33 -26 59 -26 42 0 45 16 15 65 -31 50 -73 65 -184 65 l-96 0 0
-70z"/>
<path d="M1490 290 l0 -150 30 0 29 0 3 97 3 96 74 -89 c41 -49 80 -96 88
-104 11 -12 13 11 13 143 l0 157 -30 0 c-29 0 -29 0 -32 -67 l-3 -66 -55 66
c-47 56 -60 66 -87 66 l-33 1 0 -150z"/>
<path d="M350 135 l0 -135 40 0 40 0 0 70 0 70 61 0 c43 0 71 6 93 19 36 23
75 81 54 81 -10 0 -9 3 2 11 11 8 4 9 -27 6 -23 -3 -54 -14 -69 -26 -18 -14
-41 -21 -70 -21 -42 0 -44 1 -44 30 0 28 -2 30 -40 30 l-40 0 0 -135z"/>
</g>
</svg>
