<?xml version="1.0" standalone="no"?>
<!DOCTYPE svg PUBLIC "-//W3C//DTD SVG 20010904//EN"
 "http://www.w3.org/TR/2001/REC-SVG-20010904/DTD/svg10.dtd">
<svg version="1.0" xmlns="http://www.w3.org/2000/svg"
 width="1920.000000pt" height="850.000000pt" viewBox="0 0 1920.000000 850.000000"
 preserveAspectRatio="xMidYMid meet">
<metadata>
Created by potrace 1.16, written by Peter Selinger 2001-2019
</metadata>
<g transform="translate(0.000000,850.000000) scale(0.100000,-0.100000)"
fill="#000000" stroke="none">
<path d="M10287 6848 c-9 -7 -18 -22 -20 -33 -1 -11 -6 -26 -10 -33 -10 -15
26 -77 49 -86 39 -15 87 45 77 96 -11 61 -55 86 -96 56z"/>
<path d="M10492 6842 c-11 -11 -22 -38 -26 -62 -6 -36 -3 -47 19 -76 17 -22
34 -34 50 -34 16 0 33 12 50 34 22 29 25 40 19 76 -8 50 -34 80 -69 80 -14 0
-33 -8 -43 -18z"/>
<path d="M10733 6850 c-31 -13 -44 -42 -42 -100 2 -44 5 -51 26 -56 16 -4 23
-13 23 -29 0 -30 22 -49 38 -33 7 7 12 22 12 35 0 15 7 24 23 28 19 5 23 13
25 53 2 63 -4 79 -38 97 -33 17 -36 17 -67 5z"/>
<path d="M10238 6667 c-28 -11 -56 -67 -43 -87 3 -5 44 -10 90 -10 l83 0 7 30
c4 18 17 36 32 44 l26 13 -33 12 c-18 6 -34 10 -35 9 -1 -2 -7 -16 -13 -33
l-10 -30 -1 30 c-1 22 -6 31 -19 32 -15 1 -18 -5 -15 -30 l3 -32 -15 33 c-16
35 -17 35 -57 19z"/>
<path d="M10434 6636 c-20 -9 -35 -25 -42 -45 -21 -59 -15 -61 144 -61 161 0
166 2 141 63 -11 26 -25 38 -52 47 -42 14 -38 16 -59 -30 l-16 -35 3 38 c3 32
0 37 -18 37 -18 0 -21 -5 -18 -37 l3 -38 -17 38 c-17 41 -23 43 -69 23z"/>
<path d="M9024 6416 c-3 -8 -4 -25 -2 -38 3 -20 10 -24 63 -28 95 -8 175 -1
175 16 0 8 6 14 13 14 8 0 8 3 1 8 -6 4 -13 15 -17 25 -6 15 -21 17 -117 17
-87 0 -112 -3 -116 -14z"/>
<path d="M9088 6247 c-26 -18 -47 -34 -47 -37 0 -10 108 -78 111 -70 2 4 25
21 51 38 l48 30 -53 36 c-29 20 -55 36 -58 35 -3 0 -26 -15 -52 -32z"/>
<path d="M9399 6252 c-50 -3 -57 -6 -61 -25 -10 -56 -6 -58 120 -55 l117 3 0
35 0 35 -60 5 c-33 3 -85 4 -116 2z"/>
<path d="M9097 6065 c-26 -18 -50 -35 -53 -38 -3 -3 18 -21 47 -41 l52 -35 43
30 c24 16 53 33 66 39 19 7 20 9 4 9 -10 1 -40 16 -65 34 l-47 34 -47 -32z"/>
<path d="M9348 6042 c-3 -10 -1 -28 3 -40 8 -22 12 -23 121 -20 l113 3 3 38 3
37 -119 0 c-107 0 -120 -2 -124 -18z"/>
<path d="M12602 5920 c-26 -12 -49 -32 -60 -51 -9 -18 -27 -41 -39 -52 -39
-35 -30 -70 35 -136 58 -60 122 -91 157 -77 29 11 10 31 -31 31 -65 1 -113 43
-129 112 -20 96 80 189 176 163 58 -16 95 -66 104 -139 7 -63 17 -75 35 -42
17 33 11 58 -27 116 -61 89 -134 114 -221 75z"/>
<path d="M9123 5892 c-28 -4 -63 -47 -63 -77 0 -18 -11 -26 -62 -45 -116 -42
-428 -207 -428 -226 0 -3 3 -3 8 -1 4 3 37 23 74 46 91 55 206 112 313 155
l89 36 28 -27 c50 -47 127 -30 142 33 6 24 8 24 129 26 l122 2 -123 6 c-117 5
-123 6 -135 29 -13 28 -61 49 -94 43z"/>
<path d="M13373 5853 c-17 -6 -17 -90 0 -123 11 -22 19 -25 67 -25 31 -1 60
-4 66 -8 7 -4 24 3 38 14 25 19 27 26 24 82 -2 37 -8 62 -15 65 -10 3 -13 -13
-13 -56 0 -67 -18 -95 -45 -72 -10 9 -15 31 -15 72 0 79 -24 75 -28 -4 -5
-104 -59 -103 -64 1 -2 41 -7 57 -15 54z"/>
<path d="M19190 5698 c0 -27 -6 -36 -33 -48 -17 -8 -37 -26 -44 -40 -11 -23
-21 -27 -103 -38 -103 -14 -286 -70 -375 -115 -78 -39 -169 -97 -162 -103 3
-3 23 6 44 19 148 93 353 167 534 192 45 6 47 5 59 -26 8 -20 26 -37 46 -45
23 -10 34 -22 37 -41 2 -16 5 41 6 125 0 83 -1 152 -4 152 -3 0 -5 -15 -5 -32z"/>
<path d="M15820 5674 c-191 -18 -397 -61 -549 -115 -47 -16 -93 -33 -101 -35
-11 -4 -21 7 -33 32 l-18 36 -65 -83 c-61 -77 -64 -83 -45 -91 22 -8 191 -10
191 -2 0 3 -7 19 -16 36 -9 17 -12 34 -7 39 28 28 300 107 468 136 158 27 501
24 669 -6 162 -29 172 -32 179 -70 9 -41 47 -65 92 -57 20 4 41 15 47 25 10
17 15 18 54 4 36 -12 43 -19 48 -49 8 -41 44 -67 88 -66 17 0 38 7 46 16 13
13 22 11 81 -19 36 -19 85 -46 108 -60 42 -26 43 -26 34 -3 -5 14 -41 39 -99
71 -84 45 -92 51 -92 78 0 66 -87 103 -141 60 -23 -18 -25 -18 -66 0 -34 14
-43 23 -43 43 0 31 -43 66 -81 66 -15 0 -40 -10 -55 -23 -26 -23 -30 -23 -83
-11 -161 37 -470 61 -611 48z"/>
<path d="M10453 5400 c-26 -10 -47 -46 -39 -66 4 -11 29 -14 110 -14 58 0 107
4 110 8 11 18 -8 53 -35 67 -36 19 -38 19 -49 -7 l-9 -23 0 23 c-1 33 -31 28
-32 -5 l-1 -28 -10 28 c-11 29 -12 30 -45 17z"/>
<path d="M12738 5268 c-4 -9 -4 -25 -1 -36 4 -17 -2 -24 -31 -36 -25 -10 -41
-26 -51 -49 -13 -32 -16 -34 -97 -46 -158 -24 -334 -99 -457 -196 -52 -41 -62
-45 -81 -35 -28 15 -76 4 -95 -23 -51 -73 38 -162 108 -107 24 19 28 29 26 65
-4 54 3 63 114 136 105 68 215 114 342 140 115 24 124 24 135 -5 9 -26 55 -66
76 -66 7 0 15 -15 17 -32 l4 -33 2 30 c1 22 11 36 34 50 18 11 36 30 42 43 12
27 22 27 118 3 90 -24 208 -76 295 -133 63 -41 71 -51 51 -64 -7 -4 9 -15 38
-26 27 -10 62 -31 78 -48 23 -24 26 -32 15 -45 -7 -8 -9 -15 -4 -15 5 0 24 -9
42 -20 27 -17 31 -24 22 -35 -9 -11 -6 -17 18 -29 46 -24 120 -181 150 -323 9
-39 8 -42 -20 -63 -24 -18 -29 -27 -26 -58 2 -29 10 -41 35 -57 27 -17 33 -27
34 -60 l2 -40 4 39 c3 27 13 48 34 67 16 15 29 36 29 48 0 28 43 34 208 29 94
-3 124 -1 97 5 -22 4 -102 7 -177 5 -76 -2 -138 0 -138 4 0 4 -13 14 -29 23
-23 11 -31 25 -40 64 -16 74 -50 168 -86 241 -18 36 -36 82 -40 103 -5 30 -9
36 -19 28 -19 -16 -36 7 -36 47 0 30 -2 33 -22 26 -17 -5 -28 2 -53 31 -18 20
-38 55 -44 77 -12 37 -14 39 -30 24 -16 -15 -20 -13 -57 13 -100 73 -278 150
-387 166 -40 6 -47 11 -52 36 -7 29 -47 69 -71 69 -8 0 -14 16 -16 43 -2 26
-6 36 -10 25z"/>
<path d="M18225 5148 c-76 -82 -156 -199 -209 -306 -41 -82 -101 -254 -112
-319 -4 -24 -10 -43 -14 -43 -4 0 -19 22 -34 49 l-27 50 26 13 25 14 -60 43
c-72 50 -93 84 -65 105 16 12 13 16 -37 47 -30 18 -69 52 -87 75 -96 125 -270
289 -288 271 -2 -3 26 -33 63 -68 100 -96 214 -228 236 -276 11 -24 38 -61 59
-83 21 -22 39 -47 39 -55 0 -24 44 -104 57 -105 17 0 64 -95 57 -114 -11 -28
5 -65 29 -71 18 -5 30 -26 59 -104 20 -54 51 -155 68 -226 31 -121 32 -130 16
-156 -22 -37 -20 -46 12 -75 l27 -26 0 -241 c0 -291 -21 -457 -61 -483 -31
-21 -36 -41 -23 -79 11 -29 8 -45 -25 -141 -69 -200 -172 -395 -299 -567 -42
-56 -62 -76 -85 -80 -35 -7 -49 -36 -32 -67 12 -22 49 -27 68 -8 7 7 12 23 12
36 0 14 15 43 34 66 116 142 263 417 332 620 42 126 56 139 88 85 30 -51 156
-178 216 -219 120 -82 256 -134 372 -144 l63 -6 -75 15 c-167 32 -294 91 -414
192 -81 68 -181 192 -166 207 15 15 12 57 -5 75 -12 15 -11 31 7 136 18 100
22 161 22 370 1 196 4 253 14 264 10 10 12 27 8 55 -7 40 -7 40 82 126 92 89
162 136 260 176 226 91 480 82 691 -25 23 -12 45 -21 47 -18 7 7 -150 75 -216
94 -91 25 -319 24 -410 -1 -159 -44 -285 -118 -403 -237 -43 -44 -82 -79 -87
-79 -5 0 -12 10 -15 23 -3 12 -12 53 -21 92 -19 83 -68 242 -97 308 -15 36
-17 51 -8 60 17 17 13 44 -9 65 -19 17 -20 24 -10 68 49 222 168 451 325 622
37 39 62 72 57 72 -6 0 -40 -32 -77 -72z"/>
<path d="M11533 4998 c3 -13 8 -50 12 -83 11 -100 11 -99 52 -74 39 25 35 28
80 -55 15 -26 29 -43 31 -37 2 6 -11 37 -28 68 l-33 57 32 25 32 24 -87 49
c-48 26 -89 48 -91 48 -3 0 -3 -10 0 -22z"/>
<path d="M14605 4868 c-37 -21 -46 -41 -42 -95 3 -43 1 -54 -14 -58 -24 -8
-91 -84 -86 -98 8 -25 43 -17 77 18 18 19 40 35 47 35 8 0 16 7 19 15 12 31
24 1 24 -60 0 -41 -4 -65 -12 -68 -7 -3 -4 -6 7 -6 18 -1 20 5 19 68 -2 60 0
70 17 74 17 5 19 -1 19 -69 0 -59 3 -74 15 -74 12 0 15 13 15 60 0 54 2 60 20
60 19 0 21 -5 18 -60 -3 -55 -2 -60 17 -59 11 0 14 3 8 6 -9 3 -13 26 -13 64
0 60 0 60 -27 57 -26 -3 -28 -7 -34 -63 l-6 -60 -1 71 c-2 74 3 90 23 74 17
-14 38 -4 50 23 6 12 20 23 32 25 32 5 49 28 33 47 -19 22 -37 18 -52 -12 -20
-41 -38 -41 -38 2 0 69 -77 116 -135 83z"/>
<path d="M17253 4519 c-79 -39 -127 -117 -120 -197 l3 -47 2 52 c2 45 4 52 20
47 15 -5 15 -4 2 6 -11 8 -12 13 -3 16 7 3 9 12 6 20 -4 10 2 17 17 21 14 4
18 8 10 13 -9 5 -2 15 20 31 17 13 35 23 38 22 4 -1 13 3 20 9 8 7 12 7 12 -1
0 -7 5 -9 10 -6 6 4 8 11 5 16 -4 5 20 9 54 9 51 0 61 -3 61 -17 0 -15 2 -16
10 -3 7 10 12 11 18 4 4 -6 15 -13 25 -17 10 -4 15 -12 12 -18 -4 -6 0 -9 11
-7 13 2 20 -4 22 -20 2 -12 8 -20 13 -17 11 7 32 -43 23 -56 -3 -5 0 -9 5 -9
6 0 11 -6 11 -14 0 -7 -10 -13 -22 -12 -13 1 -23 7 -23 16 0 8 -6 19 -12 23
-7 4 -13 14 -13 22 0 7 -6 16 -12 18 -10 4 -9 8 2 17 13 10 13 11 -2 7 -9 -3
-28 3 -42 14 -38 30 -32 13 8 -21 18 -17 39 -43 46 -60 11 -26 10 -32 -9 -56
-12 -15 -21 -37 -21 -50 0 -12 -4 -26 -10 -29 -5 -3 -10 -15 -10 -26 0 -11 -7
-22 -15 -25 -8 -4 -15 -11 -15 -16 0 -6 6 -5 15 2 13 11 15 8 15 -13 0 -28
-15 -44 -23 -25 -3 8 -6 6 -6 -4 -1 -15 -11 -18 -62 -18 -34 0 -58 4 -54 9 3
5 1 12 -5 16 -5 3 -10 1 -10 -5 0 -7 -5 -8 -12 -3 -7 4 -15 8 -18 9 -3 0 -13
4 -23 9 -15 6 -16 10 -5 17 10 8 9 9 -4 5 -9 -3 -22 1 -28 9 -10 11 -10 14 1
15 8 0 3 5 -10 10 -14 6 -21 15 -18 23 3 8 1 17 -6 20 -9 3 -8 8 3 16 13 10
13 11 0 7 -42 -12 17 -105 91 -145 38 -20 54 -23 117 -19 56 3 72 1 72 -10 0
-10 21 -13 90 -13 l90 0 0 75 c0 43 -4 75 -10 75 -5 0 -10 12 -10 28 0 15 -6
36 -13 47 -8 11 -19 41 -26 66 -36 131 -187 198 -308 138z"/>
<path d="M12627 4363 c44 -9 48 -25 47 -219 0 -192 -4 -209 -47 -217 -12 -2
23 -4 78 -4 55 0 90 2 78 4 -44 9 -48 25 -48 218 0 193 4 209 48 218 12 2 -23
4 -78 4 -55 0 -90 -2 -78 -4z"/>
<path d="M9540 3680 c0 -59 -3 -71 -20 -80 -14 -8 -26 -8 -40 0 -17 9 -20 21
-20 75 0 58 -2 65 -20 65 -18 0 -20 -7 -20 -65 0 -57 3 -69 25 -90 29 -30 74
-33 106 -6 20 16 24 30 27 95 4 72 3 76 -17 76 -19 0 -21 -5 -21 -70z"/>
<path d="M9627 3743 c-4 -3 -7 -46 -7 -95 0 -81 2 -88 20 -88 16 0 20 7 20 30
0 27 3 30 33 30 38 0 50 7 66 37 16 31 14 41 -14 68 -18 19 -35 25 -68 25 -24
0 -47 -3 -50 -7z"/>
<path d="M9807 3743 c-4 -3 -7 -46 -7 -95 0 -81 2 -88 20 -88 16 0 20 7 20 30
0 27 3 30 33 30 41 0 64 17 72 52 10 42 -31 78 -88 78 -24 0 -47 -3 -50 -7z"/>
<path d="M10001 3724 c-26 -21 -31 -33 -31 -67 1 -45 13 -67 47 -85 84 -45
172 43 128 127 -28 55 -95 67 -144 25z"/>
<path d="M10207 3743 c-4 -3 -7 -46 -7 -95 0 -81 2 -88 20 -88 16 0 20 7 20
30 0 23 5 30 19 30 11 0 28 -13 38 -30 11 -20 25 -30 41 -30 l23 0 -21 31
c-20 28 -21 31 -6 48 24 26 21 77 -6 95 -22 16 -108 22 -121 9z"/>
<path d="M16387 3723 c-4 -3 -7 -22 -7 -41 0 -29 -3 -33 -17 -26 -10 4 -35 8
-57 8 -102 0 -120 -161 -21 -194 28 -9 41 -9 64 3 20 10 33 11 39 5 24 -24 32
6 32 112 0 127 -8 159 -33 133z"/>
<path d="M15710 3595 c0 -103 3 -125 15 -125 11 0 15 18 17 78 l3 77 33 -57
c26 -45 39 -58 57 -58 18 0 32 14 59 58 l35 57 1 -77 c0 -63 3 -78 15 -78 13
0 15 21 15 126 0 96 -3 125 -12 122 -7 -3 -33 -40 -58 -84 -26 -43 -50 -78
-55 -78 -5 1 -30 38 -55 83 -25 44 -51 81 -57 81 -10 0 -13 -32 -13 -125z"/>
<path d="M16029 3641 c-56 -57 -31 -158 44 -176 34 -9 97 21 97 46 0 23 -4 23
-35 3 -31 -21 -74 -14 -93 14 l-14 22 81 0 c89 0 96 6 69 65 -26 58 -103 71
-149 26z"/>
<path d="M16559 3642 c-29 -26 -34 -37 -34 -75 0 -79 69 -126 134 -92 18 9 31
11 31 5 0 -5 7 -10 15 -10 12 0 15 17 15 95 l0 94 -27 -1 c-16 0 -44 3 -64 7
-32 6 -41 3 -70 -23z"/>
<path d="M15437 3631 c-8 -9 -36 -53 -62 -98 -26 -46 -51 -83 -56 -83 -6 0 -7
-4 -4 -10 3 -5 22 -10 41 -10 42 0 72 27 108 99 15 28 33 51 41 51 14 0 14 3
1 29 -18 35 -50 45 -69 22z"/>
<path d="M18748 3571 c-47 -15 -85 -49 -102 -91 -22 -57 -20 -80 14 -145 17
-31 30 -63 30 -70 0 -7 7 -18 15 -25 8 -7 15 -25 15 -41 0 -29 43 -69 75 -69
32 0 75 40 75 69 0 16 7 34 15 41 8 7 15 18 15 25 0 7 14 39 30 70 35 66 37
94 11 151 -30 67 -122 107 -193 85z m102 -46 c41 -21 70 -63 70 -101 0 -19
-16 -64 -37 -104 l-37 -70 -51 0 -51 0 -37 70 c-54 104 -47 156 27 201 37 23
77 24 116 4z"/>
<path d="M13469 3341 c-27 -28 -31 -37 -26 -69 8 -46 38 -72 86 -72 42 0 88
38 78 64 -4 9 -2 18 2 21 13 7 2 41 -19 60 -10 9 -34 18 -53 22 -31 5 -40 1
-68 -26z"/>
<path d="M13017 3328 c-52 -23 -52 -23 -31 -114 4 -15 -2 -26 -20 -37 -23 -16
-27 -15 -70 9 -25 14 -50 23 -55 20 -5 -4 -23 -23 -40 -44 l-30 -38 29 -44
c28 -42 28 -45 13 -71 -15 -25 -20 -27 -67 -22 l-52 5 -18 -57 c-9 -31 -16
-58 -14 -59 2 -1 20 -13 41 -25 34 -21 38 -27 35 -59 -3 -32 -7 -37 -45 -50
-42 -13 -43 -14 -43 -60 0 -62 10 -74 61 -81 38 -5 44 -10 53 -39 8 -30 6 -36
-24 -67 l-33 -34 28 -48 c15 -26 29 -49 30 -51 1 -1 21 5 45 13 23 8 44 15 46
15 1 0 12 -13 24 -30 21 -29 21 -30 4 -79 -16 -44 -23 -51 -79 -79 l-61 -30
-27 22 -27 22 15 80 c8 43 15 80 15 82 0 8 -152 72 -160 67 -5 -3 -30 -34 -56
-69 -26 -36 -52 -63 -58 -61 -6 2 -23 6 -37 9 -23 5 -28 14 -43 85 -17 78 -18
80 -49 83 -27 2 -33 8 -35 31 -2 15 1 27 6 27 6 0 12 7 16 15 7 19 -20 46 -39
39 -17 -7 -21 -54 -5 -54 6 0 10 -13 10 -30 0 -29 -1 -30 -49 -30 l-50 0 -17
-77 c-9 -43 -18 -80 -20 -81 -1 -2 -18 -7 -38 -12 -35 -8 -37 -7 -86 56 -28
35 -53 64 -56 64 -6 0 -147 -59 -151 -64 -2 -2 4 -38 13 -81 l16 -78 -28 -23
c-16 -13 -32 -23 -37 -24 -4 0 -38 15 -76 34 l-68 35 -45 -47 c-78 -82 -76
-75 -28 -143 l42 -61 -18 -40 -18 -40 -79 4 -80 3 -23 -75 c-13 -41 -24 -78
-24 -82 0 -4 27 -23 60 -43 51 -31 60 -41 60 -65 0 -58 -14 -75 -80 -95 l-62
-19 7 -80 c4 -45 9 -84 11 -88 3 -4 26 -10 52 -13 87 -11 87 -11 104 -64 l16
-50 -51 -44 -50 -43 36 -65 c20 -35 40 -69 45 -76 6 -9 23 -8 72 8 l64 20 33
-38 c38 -45 39 -48 13 -104 -11 -24 -20 -49 -20 -55 0 -9 122 -104 134 -104 3
0 26 18 51 40 25 22 50 40 54 40 5 0 29 -9 55 -20 l46 -21 0 -64 c0 -59 2 -65
23 -70 12 -3 49 -11 82 -19 l60 -13 30 61 31 61 52 3 52 3 27 -58 c15 -32 28
-59 29 -61 1 -2 41 4 88 14 l86 17 0 71 0 72 46 23 47 22 31 -28 c79 -73 67
-71 141 -17 36 26 65 54 65 61 0 7 -11 38 -25 69 -27 60 -25 72 17 111 l23 22
70 -21 c48 -15 70 -18 73 -10 2 7 11 21 20 32 17 20 18 20 155 -47 113 -56
136 -71 133 -87 -4 -17 0 -18 47 -13 61 5 108 -8 100 -29 -3 -8 1 -14 11 -14
23 0 20 -9 -21 -78 -196 -322 -510 -556 -868 -647 -144 -37 -254 -48 -410 -42
-158 6 -253 23 -405 73 -311 103 -592 331 -768 621 -27 46 -29 53 -16 61 14 8
10 15 -24 48 -26 25 -49 63 -66 107 -30 78 -31 87 -11 87 23 0 18 16 -15 54
-34 39 -55 124 -66 272 l-7 84 32 0 c17 0 31 3 31 8 -1 4 -15 35 -33 70 l-33
62 -32 -65 c-17 -36 -32 -68 -32 -70 0 -3 13 -5 29 -5 l28 0 6 -88 c4 -49 14
-122 22 -163 10 -45 14 -93 10 -121 -5 -42 -3 -48 12 -48 28 0 87 -158 80
-216 -5 -48 -4 -49 22 -34 16 8 24 0 57 -53 61 -100 112 -167 193 -251 201
-209 443 -347 724 -414 101 -24 131 -26 312 -27 174 0 214 3 304 23 262 59
495 182 682 359 105 100 168 178 245 299 30 49 63 92 72 95 9 3 64 -3 122 -13
143 -26 426 -29 560 -4 282 50 514 147 740 310 80 57 239 206 308 289 l32 37
117 -29 c65 -16 162 -35 215 -42 l97 -13 10 -42 c12 -48 66 -102 112 -111 27
-5 29 -9 29 -49 0 -24 5 -44 10 -44 6 0 10 19 10 43 0 40 3 44 33 55 44 16 88
63 96 104 l7 33 115 12 c216 22 432 78 621 159 44 19 83 34 87 34 4 0 12 -14
18 -31 7 -17 17 -28 22 -25 6 4 37 40 71 80 l60 74 -103 4 c-56 2 -104 2 -106
1 -3 -2 3 -18 12 -37 l16 -34 -72 -32 c-186 -83 -464 -154 -652 -167 -84 -5
-95 -4 -95 10 0 26 -68 95 -101 102 -27 6 -29 10 -29 55 0 27 -4 52 -10 55 -6
4 -10 -15 -10 -48 0 -54 0 -55 -34 -61 -36 -7 -106 -73 -106 -101 0 -17 -13
-16 -170 11 -72 13 -239 52 -248 59 -1 1 18 32 42 68 24 36 56 88 71 116 l28
50 28 -15 29 -15 0 81 c0 44 -3 80 -8 80 -4 0 -15 -8 -24 -17 -9 -10 -35 -31
-57 -48 -44 -31 -44 -30 3 -60 14 -9 8 -23 -42 -101 -31 -50 -64 -101 -73
-113 l-16 -22 -74 27 c-118 42 -325 145 -434 215 -164 107 -348 271 -490 439
-67 79 -69 83 -40 114 14 15 25 34 25 42 0 9 10 14 30 14 17 0 30 -5 30 -12 1
-31 17 -40 59 -33 38 6 41 9 41 40 0 41 27 54 64 30 23 -16 27 -15 56 1 34 20
34 22 20 60 -15 38 4 57 47 49 29 -5 35 -2 53 27 l19 32 -26 29 c-33 34 -23
60 24 65 27 3 32 7 36 40 3 29 0 41 -15 53 -20 15 -20 16 10 70 35 62 82 196
81 231 0 13 -10 -11 -23 -52 -12 -41 -31 -93 -40 -115 l-18 -40 -12 35 c-11
31 -17 35 -52 38 -53 5 -60 15 -36 54 l21 34 -25 32 -25 32 -38 -20 c-47 -23
-62 -13 -51 35 9 39 5 45 -24 44 -12 0 -15 -3 -8 -6 14 -6 16 -39 2 -48 -6 -3
-7 1 -4 9 3 9 1 16 -5 16 -25 0 -8 -30 37 -66 52 -41 79 -59 49 -32 -18 17
-18 18 7 29 22 10 29 9 46 -6 15 -14 17 -22 9 -37 -6 -10 -15 -16 -22 -12 -9
5 -9 4 0 -6 9 -10 6 -23 -14 -59 -50 -87 -38 -83 -135 -41 l-87 38 -21 -23
c-12 -13 -21 -27 -19 -32 21 -46 62 -114 66 -109 3 3 -2 17 -11 31 -14 22 -14
25 -1 25 16 0 31 -42 20 -59 -3 -6 -1 -19 4 -30 10 -17 3 -25 -47 -61 l-57
-41 -66 69 -66 68 -32 -15 c-20 -9 -30 -20 -26 -29 3 -7 5 -32 5 -54 0 -50 8
-47 12 4 2 30 7 39 30 49 26 11 30 8 80 -45 28 -31 55 -56 60 -56 8 0 59 33
101 67 23 18 27 28 27 69 0 27 -4 56 -10 64 -6 9 -5 17 2 21 7 4 6 14 -2 29
-14 27 -9 26 77 -9 l53 -21 29 51 c18 32 31 46 36 39 4 -7 23 -10 46 -8 35 3
40 1 49 -25 8 -26 7 -30 -20 -45 -22 -12 -30 -25 -30 -44 0 -16 5 -28 10 -28
16 0 12 -19 -11 -53 -19 -28 -17 -27 12 6 39 42 63 39 57 -9 -3 -25 -8 -29
-36 -32 -25 -3 -35 -10 -43 -29 -8 -22 -6 -30 17 -54 22 -23 24 -30 14 -49
-10 -19 -18 -21 -50 -16 -32 5 -40 2 -52 -17 -12 -18 -13 -27 -2 -52 11 -28
10 -31 -14 -47 -25 -17 -27 -16 -48 3 -18 17 -25 18 -48 8 -20 -10 -26 -19
-26 -46 0 -20 -5 -33 -12 -33 -7 0 -23 -3 -34 -6 -17 -5 -24 0 -32 24 -9 25
-14 29 -39 25 -32 -4 -37 -8 81 68 39 25 82 59 96 74 17 19 5 13 -36 -18 -33
-25 -94 -64 -134 -86 -67 -36 -76 -38 -91 -25 -9 8 -30 16 -47 19 -43 5 -49
10 -73 58 -12 23 -23 43 -24 45 -2 2 -19 0 -39 -4 -35 -6 -36 -7 -20 -25 14
-16 15 -23 5 -45 -10 -22 -9 -28 6 -40 39 -30 54 -36 68 -24 12 10 13 6 8 -23
-4 -29 -1 -40 20 -61 15 -14 37 -26 50 -26 17 0 37 -19 78 -72 71 -95 244
-268 345 -345 183 -139 358 -239 552 -313 61 -24 112 -48 112 -52 0 -17 -238
-247 -310 -300 -212 -156 -426 -253 -680 -309 -140 -30 -430 -38 -585 -14 -71
11 -124 24 -136 34 l-21 17 35 95 c19 51 41 113 47 136 10 33 18 42 42 47 18
3 35 17 46 35 14 25 24 31 62 34 l45 3 -46 2 c-41 2 -48 5 -53 27 -4 14 -17
30 -29 36 -23 10 -23 12 -19 153 5 153 -7 274 -39 400 -19 74 -19 79 -3 97 23
25 22 74 -1 99 -26 29 -89 27 -109 -2 -35 -49 -5 -118 49 -118 31 0 38 -15 65
-150 25 -121 35 -279 26 -383 -8 -76 -8 -78 -42 -92 -21 -9 -36 -23 -40 -39
-6 -23 -11 -26 -58 -28 l-51 -1 46 -6 c36 -5 52 -14 76 -41 16 -19 29 -39 27
-45 -14 -52 -50 -159 -66 -198 -20 -45 -22 -47 -39 -31 -17 16 -19 15 -28 -10
-9 -23 -13 -25 -36 -16 -14 5 -39 25 -56 45 -36 40 -45 43 -52 15 l-5 -20 -54
20 c-42 17 -213 103 -226 115 -2 1 6 18 18 37 l20 35 -56 53 c-56 53 -56 54
-48 94 l9 41 74 12 c41 7 78 16 82 20 4 5 9 43 11 87 l3 78 -75 28 -75 27 -3
41 c-3 40 -3 41 62 79 36 21 65 45 65 53 0 8 -10 47 -22 85 l-23 70 -69 -3
c-39 -2 -77 -5 -86 -8 -11 -3 -23 7 -36 28 l-20 33 48 71 48 71 -21 20 c-24
25 -18 50 17 76 23 16 27 16 54 2 26 -13 30 -21 33 -62 3 -50 12 -57 91 -65
27 -3 33 2 51 37 17 32 27 41 53 43 30 3 34 0 49 -37 18 -45 35 -50 107 -30
38 10 44 25 39 91 -1 10 11 24 29 34 31 16 32 15 69 -21 37 -36 38 -37 57 -19
10 11 31 28 47 40 l29 21 -18 46 c-16 43 -16 48 -1 72 9 14 18 25 19 25 2 0
25 -7 51 -16 26 -9 48 -15 50 -13 1 2 17 28 34 56 31 52 31 53 12 65 -11 7
-20 20 -21 28 0 10 -3 8 -9 -5 -5 -14 -3 -24 6 -31 13 -10 12 -17 -7 -48 -23
-40 -27 -41 -83 -25 -37 10 -39 9 -66 -23 -25 -30 -27 -36 -15 -58 29 -57 28
-67 -9 -95 l-36 -27 -37 30 -38 30 -37 -19 c-30 -15 -38 -26 -43 -57 -10 -58
-13 -62 -39 -62 -13 0 -31 -3 -39 -6 -10 -3 -19 8 -31 35 -16 40 -17 41 -66
41 -48 0 -50 -1 -70 -40 -20 -39 -22 -40 -58 -34 -51 9 -52 10 -52 54 0 37 -3
41 -42 58 l-43 19 -34 -28 c-36 -30 -43 -29 -89 10 -22 19 -22 21 -8 56 15 36
15 38 -11 72 -24 31 -30 34 -57 28 -58 -13 -66 -11 -88 27 l-22 38 32 33 c32
33 32 34 19 73 -13 35 -18 40 -59 48 -40 8 -47 13 -52 39 -11 55 -8 63 35 77
47 16 45 13 53 65 6 39 5 41 -34 63 -43 24 -47 38 -27 87 12 27 16 29 64 26
48 -2 51 -1 70 31 l20 34 -29 42 -30 43 27 34 c14 19 31 35 37 35 6 0 30 -11
52 -24 l41 -24 28 22 c25 20 27 27 25 80 l-3 58 39 16 c39 15 39 15 63 -14 12
-16 23 -24 23 -18 0 13 -38 64 -48 64 -4 -1 -29 -10 -55 -22z m-738 -955 c7
-60 15 -123 18 -140 l5 -33 -66 0 c-86 0 -142 -14 -241 -60 -228 -106 -367
-324 -369 -580 -1 -110 14 -177 59 -275 85 -185 243 -314 443 -361 89 -21 252
-14 342 14 129 42 263 145 339 262 19 30 37 57 38 59 2 3 18 -9 36 -26 17 -17
65 -54 105 -83 39 -28 72 -55 72 -59 0 -3 -7 -16 -15 -28 l-15 -21 -61 19
c-33 10 -66 19 -72 19 -7 0 -27 -21 -46 -46 l-34 -45 26 -65 c15 -35 27 -66
27 -68 0 -1 -24 -20 -54 -40 -61 -42 -69 -41 -120 13 -17 17 -34 31 -39 31 -6
0 -34 -11 -64 -25 l-53 -26 0 -69 0 -69 -57 -11 c-32 -7 -63 -15 -70 -17 -8
-3 -23 18 -39 56 l-27 61 -66 0 -67 0 -29 -60 c-31 -65 -31 -65 -110 -47 l-50
12 -3 65 -3 65 -64 26 -65 27 -44 -39 c-24 -22 -48 -39 -52 -39 -7 0 -114 71
-114 75 0 2 11 28 25 59 l25 57 -42 50 c-24 27 -48 49 -54 49 -6 0 -32 -7 -57
-16 -26 -9 -53 -14 -60 -11 -6 3 -25 30 -42 61 l-30 57 48 42 49 42 -20 60
c-21 65 -26 69 -114 80 -46 6 -48 8 -48 38 0 18 -3 48 -6 68 l-6 37 65 21 66
22 6 47 c4 26 9 54 11 62 3 11 -17 29 -60 55 l-63 38 21 64 21 65 74 -4 74 -3
28 45 c16 25 29 49 29 53 0 4 -19 34 -41 67 l-42 59 42 50 c24 28 47 51 51 51
5 0 36 -16 69 -35 32 -19 63 -35 68 -35 4 0 25 15 47 33 l38 32 -15 79 -14 78
61 28 61 28 25 -27 c14 -15 39 -44 55 -65 l30 -38 47 12 c52 13 47 6 79 133
11 46 13 47 49 47 l37 0 12 -107z m68 26 c19 -86 22 -89 88 -103 28 -6 34 -2
83 63 l53 70 62 -30 c34 -16 61 -33 61 -37 -1 -4 -7 -42 -14 -85 -12 -73 -12
-79 6 -92 42 -31 65 -39 82 -29 9 6 42 25 73 42 l56 32 45 -54 46 -53 -47 -68
-48 -68 26 -44 26 -43 86 6 87 6 17 -53 c9 -30 18 -59 21 -66 3 -6 -26 -30
-66 -54 -68 -40 -72 -44 -66 -72 3 -16 6 -40 6 -52 0 -20 11 -27 80 -50 l80
-27 -6 -66 c-4 -37 -8 -69 -10 -70 -1 -2 -36 -9 -78 -14 l-75 -11 -16 -53 -15
-52 56 -54 c53 -51 55 -55 43 -81 -7 -15 -15 -27 -18 -27 -7 0 -136 95 -181
133 l-33 28 22 68 c72 220 36 439 -102 619 -86 113 -251 213 -389 236 -84 14
-78 4 -97 176 -8 73 -8 96 2 102 27 17 37 5 54 -73z m-23 -291 c66 -257 223
-537 417 -742 l88 -93 -29 -50 c-61 -107 -190 -209 -328 -261 -90 -33 -248
-42 -342 -18 -292 74 -484 317 -483 611 0 238 130 449 347 561 66 35 178 63
251 63 l61 1 18 -72z m141 41 c146 -44 289 -169 362 -314 76 -149 88 -342 31
-493 l-21 -56 -86 90 c-47 49 -116 133 -153 184 -113 159 -242 443 -264 582
l-7 39 39 -7 c21 -4 66 -15 99 -25z"/>
<path d="M11803 3080 c-17 -7 -23 -17 -22 -37 1 -27 1 -27 8 -4 7 25 29 34 50
22 8 -5 4 -27 -13 -77 -23 -67 -24 -68 -28 -34 -4 27 -5 23 -5 -15 0 -63 -18
-102 -39 -84 -11 9 -14 9 -14 0 0 -8 -8 -10 -20 -6 -14 5 -20 2 -20 -10 0 -9
-4 -13 -10 -10 -5 3 -10 -3 -10 -14 0 -12 -5 -21 -11 -21 -8 0 -8 -4 0 -13 8
-10 7 -17 -1 -25 -9 -9 -5 -12 20 -12 18 0 35 0 38 1 4 0 11 -5 15 -13 7 -10
9 -10 9 0 0 6 7 12 16 12 9 0 12 5 8 12 -5 7 -3 8 7 2 21 -13 38 -13 46 -1 10
17 11 47 1 47 -4 0 -8 9 -8 20 0 13 -5 18 -16 13 -14 -5 -14 -2 1 33 17 40 47
115 59 148 6 18 10 16 44 -15 20 -19 12 -7 -18 26 -30 33 -57 61 -60 62 -3 1
-15 -2 -27 -7z"/>
<path d="M11696 2674 c-9 -8 -16 -19 -16 -24 0 -12 -49 -18 -54 -6 -3 7 -8 6
-14 -3 -5 -7 -15 -10 -21 -7 -6 4 -14 0 -17 -8 -3 -9 -12 -16 -20 -16 -8 0
-11 -6 -8 -15 4 -8 2 -15 -3 -15 -5 0 -10 -13 -10 -30 0 -16 4 -30 8 -30 5 0
6 -7 3 -15 -4 -9 0 -15 10 -15 25 0 20 -13 -41 -91 -123 -160 -141 -176 -210
-190 -35 -7 -63 -16 -63 -19 0 -4 9 -18 20 -32 l19 -25 -30 -22 c-17 -12 -57
-27 -90 -33 -62 -12 -69 -18 -44 -38 8 -7 15 -18 15 -25 0 -23 -232 -176 -370
-245 -74 -37 -75 -38 -68 -46 15 -14 277 135 388 221 63 49 75 53 84 30 10
-27 22 -16 52 46 16 34 40 70 54 81 22 17 26 18 36 4 6 -9 14 -16 16 -16 3 0
16 26 29 58 13 33 49 87 84 127 33 39 74 88 90 110 51 70 68 86 76 73 6 -9 11
-9 23 1 13 11 16 11 16 0 1 -11 3 -10 13 2 7 9 18 14 25 12 6 -3 12 2 12 10 0
9 5 17 10 19 14 4 20 86 7 91 -16 5 -17 38 -1 69 16 31 13 36 -10 12z"/>
<path d="M13099 2505 c-26 -14 -43 -50 -33 -67 3 -4 52 -8 109 -8 57 0 106 4
109 8 11 18 -8 53 -35 67 -36 19 -38 19 -49 -7 l-9 -23 0 23 c-1 13 -7 22 -16
22 -9 0 -15 -9 -16 -22 l0 -23 -9 23 c-11 26 -16 26 -51 7z"/>
<path d="M17220 2090 c0 -28 2 -30 40 -30 33 0 40 -3 40 -20 0 -12 -14 -29
-35 -42 -19 -13 -35 -26 -35 -30 0 -3 16 -16 35 -28 44 -27 44 -44 0 -72 -19
-13 -35 -26 -35 -30 0 -3 16 -16 35 -28 35 -22 48 -60 21 -60 -18 0 -46 -38
-46 -62 0 -26 36 -58 65 -58 16 0 32 11 47 30 21 29 25 30 100 30 l78 0 0 60
0 60 40 0 c38 0 40 2 40 30 l0 30 -85 0 c-72 0 -85 -3 -85 -16 0 -23 -59 -13
-100 16 -39 28 -38 44 4 69 35 22 86 28 86 11 0 -7 32 -10 88 -8 85 3 87 3 87
28 0 22 -5 26 -40 30 l-40 5 0 45 0 45 -67 3 c-38 2 -68 7 -68 12 0 6 -38 10
-85 10 l-85 0 0 -30z m290 -50 c0 -39 -1 -40 -35 -40 -22 0 -38 -6 -41 -15
-15 -38 -124 9 -124 53 0 19 5 22 40 22 22 0 40 5 40 10 0 6 27 10 60 10 l60
0 0 -40z m-70 -220 c0 -5 18 -10 40 -10 l40 0 0 -55 0 -55 -79 0 c-71 0 -79 2
-84 21 -3 11 -15 23 -26 26 -54 14 5 82 72 83 20 0 37 -4 37 -10z"/>
<path d="M9061 1646 c11 -12 202 -66 302 -85 221 -43 455 -52 671 -26 134 16
342 58 310 63 -11 1 -76 -8 -145 -22 -186 -38 -386 -51 -567 -37 -199 15 -316
37 -557 108 -11 3 -17 3 -14 -1z"/>
</g>
</svg>
